<?xml version="1.0" standalone="no"?><!DOCTYPE svg PUBLIC "-//W3C//DTD SVG 1.1//EN" "http://www.w3.org/Graphics/SVG/1.1/DTD/svg11.dtd"><svg t="1571738464954" class="icon" viewBox="0 0 1024 1024" version="1.1" xmlns="http://www.w3.org/2000/svg" p-id="3711" width="16" height="16" xmlns:xlink="http://www.w3.org/1999/xlink"><defs><style type="text/css"></style></defs><path d="M512 146.901333l-33.621333 4.821334A234.709333 234.709333 0 0 0 277.333333 384v170.666667a234.666667 234.666667 0 0 1-99.669333 192h668.672A234.666667 234.666667 0 0 1 746.666667 554.666667V384a234.709333 234.709333 0 0 0-201.045334-232.277333L512 146.901333zM810.666667 554.666667a170.752 170.752 0 0 0 128 165.290666V802.133333a8.533333 8.533333 0 0 1-8.533334 8.533334H93.866667a8.533333 8.533333 0 0 1-8.533334-8.533334v-82.176c73.6-18.944 128-85.76 128-165.290666V384a298.752 298.752 0 0 1 256-295.68v-2.56a42.666667 42.666667 0 1 1 85.333334 0v2.56c144.725333 20.736 256 145.237333 256 295.68v170.666667z m-384 298.666666h170.666666a85.333333 85.333333 0 1 1-170.666666 0z" fill="#83868F" p-id="3712"></path></svg>