<svg id="图层_1" data-name="图层 1" xmlns="http://www.w3.org/2000/svg" viewBox="0 0 36 36"><defs><style>.cls-1{fill:#fff;}.cls-2{fill:#d3f0e4;}</style></defs><title>形状1</title><g id="mask-2"><path id="path-1" class="cls-1" d="M12.61,35.18a18,18,0,0,1-5.49-2.83,7.39,7.39,0,0,1,2.8-.86s5.09-.78,5.4-2c0,0,.15-.16,0-1.71-.31-3.27-2.47-4.82-3.4-6.07A4.89,4.89,0,0,1,11,19a.72.72,0,0,1,.46-.78c.31-.31.15-.62.15-.93a22,22,0,0,1,0-4.51A4.27,4.27,0,0,1,13,10.18a3.37,3.37,0,0,1,.77-.62c.15-.16.15-.16.15-.31.15-.31-.15-.62-.15-.93s.62-.31.93-.31H17c5.87.47,7.72,2.49,7.72,2.49a5.27,5.27,0,0,1,.93,1.87.94.94,0,0,1,.15.62A21,21,0,0,1,26,16.09c0,.47-.15.93-.15,1.4a.94.94,0,0,0,.15.62c0,.16.31.31.31.47v.31a4.89,4.89,0,0,1-.93,2.64c-.93,1.24-3.09,2.8-3.4,6.07-.15,1.56,0,1.71,0,1.71.46,1.4,5.4,2,5.4,2a9.23,9.23,0,0,1,2.07.56,17.92,17.92,0,0,1-8.9,3.93q-.83.11-1.67.16l-.68,0A20.27,20.27,0,0,1,12.61,35.18Z"/></g><g id="Welcome"><g id="我的课件-空页面"><g id="顶部"><g id="Shape"><circle id="Mask" class="cls-2" cx="18" cy="18" r="18"/><g id="Combined-Shape"><path id="path-1-2" data-name="path-1" class="cls-1" d="M12.61,35.18a18,18,0,0,1-5.49-2.83,7.39,7.39,0,0,1,2.8-.86s5.09-.78,5.4-2c0,0,.15-.16,0-1.71-.31-3.27-2.47-4.82-3.4-6.07A4.89,4.89,0,0,1,11,19a.72.72,0,0,1,.46-.78c.31-.31.15-.62.15-.93a22,22,0,0,1,0-4.51A4.27,4.27,0,0,1,13,10.18a3.37,3.37,0,0,1,.77-.62c.15-.16.15-.16.15-.31.15-.31-.15-.62-.15-.93s.62-.31.93-.31H17c5.87.47,7.72,2.49,7.72,2.49a5.27,5.27,0,0,1,.93,1.87.94.94,0,0,1,.15.62A21,21,0,0,1,26,16.09c0,.47-.15.93-.15,1.4a.94.94,0,0,0,.15.62c0,.16.31.31.31.47v.31a4.89,4.89,0,0,1-.93,2.64c-.93,1.24-3.09,2.8-3.4,6.07-.15,1.56,0,1.71,0,1.71.46,1.4,5.4,2,5.4,2a9.23,9.23,0,0,1,2.07.56,17.92,17.92,0,0,1-8.9,3.93q-.83.11-1.67.16l-.68,0A20.27,20.27,0,0,1,12.61,35.18Z"/></g></g></g></g></g></svg>